<svg xmlns="http://www.w3.org/2000/svg" width="320" height="190" viewBox="0 0 320 190">
  <g fill="#2ec27e" opacity=".16">
    <circle cx="10" cy="10" r="1.5"/><circle cx="26" cy="10" r="1.5"/><circle cx="42" cy="10" r="1.5"/><circle cx="58" cy="10" r="1.5"/><circle cx="74" cy="10" r="1.5"/><circle cx="90" cy="10" r="1.5"/><circle cx="106" cy="10" r="1.5"/><circle cx="122" cy="10" r="1.5"/><circle cx="138" cy="10" r="1.5"/><circle cx="154" cy="10" r="1.5"/><circle cx="170" cy="10" r="1.5"/><circle cx="186" cy="10" r="1.5"/><circle cx="202" cy="10" r="1.5"/><circle cx="218" cy="10" r="1.5"/><circle cx="234" cy="10" r="1.5"/><circle cx="250" cy="10" r="1.5"/><circle cx="266" cy="10" r="1.5"/><circle cx="282" cy="10" r="1.5"/><circle cx="298" cy="10" r="1.5"/>
    <circle cx="10" cy="26" r="1.5"/><circle cx="26" cy="26" r="1.5"/><circle cx="42" cy="26" r="1.5"/><circle cx="58" cy="26" r="1.5"/><circle cx="74" cy="26" r="1.5"/><circle cx="90" cy="26" r="1.5"/><circle cx="106" cy="26" r="1.5"/><circle cx="122" cy="26" r="1.5"/><circle cx="138" cy="26" r="1.5"/><circle cx="154" cy="26" r="1.5"/><circle cx="170" cy="26" r="1.5"/><circle cx="186" cy="26" r="1.5"/><circle cx="202" cy="26" r="1.5"/><circle cx="218" cy="26" r="1.5"/><circle cx="234" cy="26" r="1.5"/><circle cx="250" cy="26" r="1.5"/><circle cx="266" cy="26" r="1.5"/><circle cx="282" cy="26" r="1.5"/><circle cx="298" cy="26" r="1.5"/>
    <circle cx="10" cy="42" r="1.5"/><circle cx="26" cy="42" r="1.5"/><circle cx="42" cy="42" r="1.5"/><circle cx="58" cy="42" r="1.5"/><circle cx="74" cy="42" r="1.5"/><circle cx="90" cy="42" r="1.5"/><circle cx="106" cy="42" r="1.5"/><circle cx="122" cy="42" r="1.5"/><circle cx="138" cy="42" r="1.5"/><circle cx="154" cy="42" r="1.5"/><circle cx="170" cy="42" r="1.5"/><circle cx="186" cy="42" r="1.5"/><circle cx="202" cy="42" r="1.5"/><circle cx="218" cy="42" r="1.5"/><circle cx="234" cy="42" r="1.5"/><circle cx="250" cy="42" r="1.5"/><circle cx="266" cy="42" r="1.5"/><circle cx="282" cy="42" r="1.5"/><circle cx="298" cy="42" r="1.5"/>
    <circle cx="10" cy="58" r="1.5"/><circle cx="26" cy="58" r="1.5"/><circle cx="42" cy="58" r="1.5"/><circle cx="58" cy="58" r="1.5"/><circle cx="74" cy="58" r="1.5"/><circle cx="90" cy="58" r="1.5"/><circle cx="106" cy="58" r="1.5"/><circle cx="122" cy="58" r="1.5"/><circle cx="138" cy="58" r="1.5"/><circle cx="154" cy="58" r="1.5"/><circle cx="170" cy="58" r="1.5"/><circle cx="186" cy="58" r="1.5"/><circle cx="202" cy="58" r="1.5"/><circle cx="218" cy="58" r="1.5"/><circle cx="234" cy="58" r="1.5"/><circle cx="250" cy="58" r="1.5"/><circle cx="266" cy="58" r="1.5"/><circle cx="282" cy="58" r="1.5"/><circle cx="298" cy="58" r="1.5"/>
    <circle cx="10" cy="74" r="1.5"/><circle cx="26" cy="74" r="1.5"/><circle cx="42" cy="74" r="1.5"/><circle cx="58" cy="74" r="1.5"/><circle cx="74" cy="74" r="1.5"/><circle cx="90" cy="74" r="1.5"/><circle cx="106" cy="74" r="1.5"/><circle cx="122" cy="74" r="1.5"/><circle cx="138" cy="74" r="1.5"/><circle cx="154" cy="74" r="1.5"/><circle cx="170" cy="74" r="1.5"/><circle cx="186" cy="74" r="1.5"/><circle cx="202" cy="74" r="1.5"/><circle cx="218" cy="74" r="1.5"/><circle cx="234" cy="74" r="1.5"/><circle cx="250" cy="74" r="1.5"/><circle cx="266" cy="74" r="1.5"/><circle cx="282" cy="74" r="1.5"/><circle cx="298" cy="74" r="1.5"/>
    <circle cx="10" cy="90" r="1.5"/><circle cx="26" cy="90" r="1.5"/><circle cx="42" cy="90" r="1.5"/><circle cx="58" cy="90" r="1.5"/><circle cx="74" cy="90" r="1.5"/><circle cx="90" cy="90" r="1.5"/><circle cx="106" cy="90" r="1.5"/><circle cx="122" cy="90" r="1.5"/><circle cx="138" cy="90" r="1.5"/><circle cx="154" cy="90" r="1.5"/><circle cx="170" cy="90" r="1.5"/><circle cx="186" cy="90" r="1.5"/><circle cx="202" cy="90" r="1.5"/><circle cx="218" cy="90" r="1.5"/><circle cx="234" cy="90" r="1.5"/><circle cx="250" cy="90" r="1.5"/><circle cx="266" cy="90" r="1.5"/><circle cx="282" cy="90" r="1.5"/><circle cx="298" cy="90" r="1.5"/>
    <circle cx="10" cy="106" r="1.5"/><circle cx="26" cy="106" r="1.5"/><circle cx="42" cy="106" r="1.5"/><circle cx="58" cy="106" r="1.5"/><circle cx="74" cy="106" r="1.5"/><circle cx="90" cy="106" r="1.5"/><circle cx="106" cy="106" r="1.5"/><circle cx="122" cy="106" r="1.5"/><circle cx="138" cy="106" r="1.5"/><circle cx="154" cy="106" r="1.5"/><circle cx="170" cy="106" r="1.5"/><circle cx="186" cy="106" r="1.5"/><circle cx="202" cy="106" r="1.5"/><circle cx="218" cy="106" r="1.5"/><circle cx="234" cy="106" r="1.5"/><circle cx="250" cy="106" r="1.5"/><circle cx="266" cy="106" r="1.5"/><circle cx="282" cy="106" r="1.5"/><circle cx="298" cy="106" r="1.5"/>
    <circle cx="10" cy="122" r="1.5"/><circle cx="26" cy="122" r="1.5"/><circle cx="42" cy="122" r="1.5"/><circle cx="58" cy="122" r="1.5"/><circle cx="74" cy="122" r="1.5"/><circle cx="90" cy="122" r="1.5"/><circle cx="106" cy="122" r="1.5"/><circle cx="122" cy="122" r="1.5"/><circle cx="138" cy="122" r="1.5"/><circle cx="154" cy="122" r="1.5"/><circle cx="170" cy="122" r="1.5"/><circle cx="186" cy="122" r="1.5"/><circle cx="202" cy="122" r="1.5"/><circle cx="218" cy="122" r="1.5"/><circle cx="234" cy="122" r="1.5"/><circle cx="250" cy="122" r="1.5"/><circle cx="266" cy="122" r="1.5"/><circle cx="282" cy="122" r="1.5"/><circle cx="298" cy="122" r="1.5"/>
    <circle cx="10" cy="138" r="1.5"/><circle cx="26" cy="138" r="1.5"/><circle cx="42" cy="138" r="1.5"/><circle cx="58" cy="138" r="1.5"/><circle cx="74" cy="138" r="1.5"/><circle cx="90" cy="138" r="1.5"/><circle cx="106" cy="138" r="1.5"/><circle cx="122" cy="138" r="1.5"/><circle cx="138" cy="138" r="1.5"/><circle cx="154" cy="138" r="1.5"/><circle cx="170" cy="138" r="1.5"/><circle cx="186" cy="138" r="1.5"/><circle cx="202" cy="138" r="1.5"/><circle cx="218" cy="138" r="1.5"/><circle cx="234" cy="138" r="1.5"/><circle cx="250" cy="138" r="1.5"/><circle cx="266" cy="138" r="1.5"/><circle cx="282" cy="138" r="1.5"/><circle cx="298" cy="138" r="1.5"/>
    <circle cx="10" cy="154" r="1.5"/><circle cx="26" cy="154" r="1.5"/><circle cx="42" cy="154" r="1.5"/><circle cx="58" cy="154" r="1.5"/><circle cx="74" cy="154" r="1.5"/><circle cx="90" cy="154" r="1.5"/><circle cx="106" cy="154" r="1.5"/><circle cx="122" cy="154" r="1.5"/><circle cx="138" cy="154" r="1.5"/><circle cx="154" cy="154" r="1.5"/><circle cx="170" cy="154" r="1.5"/><circle cx="186" cy="154" r="1.5"/><circle cx="202" cy="154" r="1.5"/><circle cx="218" cy="154" r="1.5"/><circle cx="234" cy="154" r="1.5"/><circle cx="250" cy="154" r="1.5"/><circle cx="266" cy="154" r="1.5"/><circle cx="282" cy="154" r="1.5"/><circle cx="298" cy="154" r="1.5"/>
    <circle cx="10" cy="170" r="1.5"/><circle cx="26" cy="170" r="1.5"/><circle cx="42" cy="170" r="1.5"/><circle cx="58" cy="170" r="1.5"/><circle cx="74" cy="170" r="1.5"/><circle cx="90" cy="170" r="1.5"/><circle cx="106" cy="170" r="1.5"/><circle cx="122" cy="170" r="1.5"/><circle cx="138" cy="170" r="1.5"/><circle cx="154" cy="170" r="1.5"/><circle cx="170" cy="170" r="1.5"/><circle cx="186" cy="170" r="1.5"/><circle cx="202" cy="170" r="1.5"/><circle cx="218" cy="170" r="1.5"/><circle cx="234" cy="170" r="1.5"/><circle cx="250" cy="170" r="1.5"/><circle cx="266" cy="170" r="1.5"/><circle cx="282" cy="170" r="1.5"/><circle cx="298" cy="170" r="1.5"/>
  </g>
</svg>
