<svg xmlns="http://www.w3.org/2000/svg" width="180" height="116" viewBox="0 0 180 116">
  <g fill="#2ec27e" opacity=".16">
    <circle cx="8" cy="8" r="1.5"/><circle cx="24" cy="8" r="1.5"/><circle cx="40" cy="8" r="1.5"/><circle cx="56" cy="8" r="1.5"/><circle cx="72" cy="8" r="1.5"/><circle cx="88" cy="8" r="1.5"/><circle cx="104" cy="8" r="1.5"/><circle cx="120" cy="8" r="1.5"/><circle cx="136" cy="8" r="1.5"/><circle cx="152" cy="8" r="1.5"/><circle cx="168" cy="8" r="1.5"/>
    <circle cx="8" cy="24" r="1.5"/><circle cx="24" cy="24" r="1.5"/><circle cx="40" cy="24" r="1.5"/><circle cx="56" cy="24" r="1.5"/><circle cx="72" cy="24" r="1.5"/><circle cx="88" cy="24" r="1.5"/><circle cx="104" cy="24" r="1.5"/><circle cx="120" cy="24" r="1.5"/><circle cx="136" cy="24" r="1.5"/><circle cx="152" cy="24" r="1.5"/><circle cx="168" cy="24" r="1.5"/>
    <circle cx="8" cy="40" r="1.5"/><circle cx="24" cy="40" r="1.5"/><circle cx="40" cy="40" r="1.5"/><circle cx="56" cy="40" r="1.5"/><circle cx="72" cy="40" r="1.5"/><circle cx="88" cy="40" r="1.5"/><circle cx="104" cy="40" r="1.5"/><circle cx="120" cy="40" r="1.5"/><circle cx="136" cy="40" r="1.5"/><circle cx="152" cy="40" r="1.5"/><circle cx="168" cy="40" r="1.5"/>
    <circle cx="8" cy="56" r="1.5"/><circle cx="24" cy="56" r="1.5"/><circle cx="40" cy="56" r="1.5"/><circle cx="56" cy="56" r="1.5"/><circle cx="72" cy="56" r="1.5"/><circle cx="88" cy="56" r="1.5"/><circle cx="104" cy="56" r="1.5"/><circle cx="120" cy="56" r="1.5"/><circle cx="136" cy="56" r="1.5"/><circle cx="152" cy="56" r="1.5"/><circle cx="168" cy="56" r="1.5"/>
    <circle cx="8" cy="72" r="1.5"/><circle cx="24" cy="72" r="1.5"/><circle cx="40" cy="72" r="1.5"/><circle cx="56" cy="72" r="1.5"/><circle cx="72" cy="72" r="1.5"/><circle cx="88" cy="72" r="1.5"/><circle cx="104" cy="72" r="1.5"/><circle cx="120" cy="72" r="1.5"/><circle cx="136" cy="72" r="1.5"/><circle cx="152" cy="72" r="1.5"/><circle cx="168" cy="72" r="1.5"/>
    <circle cx="8" cy="88" r="1.5"/><circle cx="24" cy="88" r="1.5"/><circle cx="40" cy="88" r="1.5"/><circle cx="56" cy="88" r="1.5"/><circle cx="72" cy="88" r="1.5"/><circle cx="88" cy="88" r="1.5"/><circle cx="104" cy="88" r="1.5"/><circle cx="120" cy="88" r="1.5"/><circle cx="136" cy="88" r="1.5"/><circle cx="152" cy="88" r="1.5"/><circle cx="168" cy="88" r="1.5"/>
    <circle cx="8" cy="104" r="1.5"/><circle cx="24" cy="104" r="1.5"/><circle cx="40" cy="104" r="1.5"/><circle cx="56" cy="104" r="1.5"/><circle cx="72" cy="104" r="1.5"/><circle cx="88" cy="104" r="1.5"/><circle cx="104" cy="104" r="1.5"/><circle cx="120" cy="104" r="1.5"/><circle cx="136" cy="104" r="1.5"/><circle cx="152" cy="104" r="1.5"/><circle cx="168" cy="104" r="1.5"/>
  </g>
</svg>
